# AST/ASF file generated using VICON BodyLanguage
# -----------------------------------------------
:version 1.10
:name VICON
:units
  mass 1.0
  length 0.45
  angle deg
:documentation
   .ast/.asf automatically generated from VICON data using
   VICON BodyBuilder and BodyLanguage model FoxedUp or BRILLIANT.MOD
:root
   order TX TY TZ RX RY RZ
   axis XYZ
   position 0 0 0  
   orientation 0 0 0 
:bonedata
  begin
     id 1 
     name lhipjoint
     direction 0.596438 -0.722117 0.35044 
     length 2.43043 
     axis 0 0 0  XYZ
  end
  begin
     id 2 
     name lfemur
     direction 0.34202 -0.939693 0  
     length 7.0339  
     axis 0 0 20  XYZ
    dof rx ry rz
    limits (-160.0 20.0)
           (-70.0 70.0)
           (-60.0 70.0)
  end
  begin
     id 3 
     name ltibia
     direction 0.34202 -0.939693 0   
     length 7.56602   
     axis 0 0 20   XYZ
    dof rx
    limits (-10.0 170.0)
  end
  begin
     id 4 
     name lfoot
     direction 0.0985677 -0.270812 0.957572   
     length 1.85172   
     axis -90 7.62852e-016 20   XYZ
    dof rx rz
    limits (-45.0 90.0)
           (-70.0 20.0)
  end
  begin
     id 5 
     name ltoes
     direction 1.53534e-011 -4.21843e-011 1   
     length 0.929904   
     axis -90 7.62852e-016 20   XYZ
    dof rx
    limits (-90.0 20.0)
  end
  begin
     id 6 
     name rhipjoint
     direction -0.585088 -0.729594 0.354068   
     length 2.40552  
     axis 0 0 0  XYZ 
  end
  begin
     id 7 
     name rfemur
     direction -0.34202 -0.939693 0   
     length 7.12573   
     axis 0 0 -20   XYZ
    dof rx ry rz
    limits (-160.0 20.0)
           (-70.0 70.0)
           (-70.0 60.0)
  end
  begin
     id 8 
     name rtibia
     direction -0.34202 -0.939693 0   
     length 7.35777   
     axis 0 0 -20   XYZ
    dof rx
    limits (-10.0 170.0)
 end
 begin
     id 9 
     name rfoot
     direction -0.120907 -0.33219 0.935431   
     length 2.0994  
     axis -90 -7.62852e-016 -20   XYZ
    dof rx rz
    limits (-45.0 90.0)
           (-20.0 70.0)
  end
  begin
     id 10 
     name rtoes
     direction -1.53577e-011 -4.21787e-011 1   
     length 1.04244   
     axis -90 -7.62852e-016 -20   XYZ
    dof rx
    limits (-90.0 20.0)
  end
  begin
     id 11 
     name lowerback
     direction 0.00268363 0.993603 -0.112896   
     length 2.15839   
     axis 0 0 0   XYZ
    dof rx ry rz
    limits (-20.0 45.0)
           (-30.0 30.0)
           (-30.0 30.0)
  end
  begin
     id 12 
     name upperback
     direction 0.0272563 0.999411 -0.0208618   
     length 2.16443   
     axis 0 0 0   XYZ
    dof rx ry rz
    limits (-20.0 45.0)
           (-30.0 30.0)
           (-30.0 30.0)
  end
  begin
     id 13 
     name thorax
     direction 0.0254655 0.999174 0.0316806   
     length 2.19003   
     axis 0 0 0   XYZ
    dof rx ry rz
    limits (-20.0 45.0)
           (-30.0 30.0)
           (-30.0 30.0)
  end
  begin
     id 14 
     name lowerneck
     direction -0.0102178 0.988048 0.15381   
     length 1.61507   
     axis 0 0 0   XYZ
    dof rx ry rz
    limits (-20.0 45.0)
           (-30.0 30.0)
           (-30.0 30.0)
  end
  begin
     id 15 
     name upperneck
     direction -0.0061965 0.994088 -0.108398   
     length 1.64042   
     axis 0 0 0   XYZ
    dof rx ry rz
    limits (-20.0 45.0)
           (-30.0 30.0)
           (-30.0 30.0)
  end
  begin
     id 16
     name head
     direction -0.00151929 0.998591 -0.0530385  
     length 1.64343  
     axis 0 0 0   XYZ
    dof rx ry rz
    limits (-20.0 45.0)
           (-30.0 30.0)
           (-30.0 30.0)
  end
  begin
     id 17 
     name lclavicle
     direction 0.948974 0.284245 -0.136574  
     length 3.3483  
     axis 0 0 0   XYZ
    dof ry rz
    limits (-20.0 10.0)
           (0.0 20.0)
  end
  begin
     id 18 
     name lhumerus
     direction 1 -4.48961e-011 1.68576e-027   
     length 4.93485   
     axis -180 -30 -90   XYZ
    dof rx ry rz
    limits (-60.0 90.0)
           (-90.0 90.0)
           (-90.0 90.0)
  end
  begin
     id 19
     name lradius
     direction 1 -4.48965e-011 -2.46405e-027   
     length 3.41719   
     axis -180 -30 -90   XYZ
    dof rx
    limits (-10.0 170.0)
  end
  begin
     id 20
     name lwrist
     direction 1 -4.48968e-011 -8.00486e-028   
     length 1.7086   
     axis 3.27501e-015 90 90   XYZ
    dof ry
    limits (-180.0 0.0)
 end
  begin
     id 21 
     name lhand
     direction 1 -4.48977e-011 -1.60161e-027   
     length 0.6241   
     axis 1.02148e-015 90 90   XYZ
    dof rx rz
    limits (-90.0 90.0)
           (-45.0 45.0)
  end
  begin
     id 22 
     name lfingers
     direction 1 -4.49049e-011 -3.21275e-027   
     length 0.503166   
     axis 2.04295e-015 90 90   XYZ
    dof rx
    limits (0.0 90.0)
  end
  begin
     id 23
     name lthumb
     direction 0.707107 -6.34975e-011 0.707107   
     length 0.722448   
     axis -90 45 -1.62303e-014   XYZ
    dof rx rz
    limits (-45.0 45.0)
           (-45.0 45.0)
  end
  begin
     id 24 
     name rclavicle
     direction -0.904485 0.355099 -0.236246   
     length 3.18329  
     axis 0 0 0   XYZ 
    dof ry rz
    limits (-10.0 20.0)
           (-20.0 0.0)
  end
  begin
     id 25 
     name rhumerus
     direction -1 -4.48953e-011 1.32816e-027  
     length 5.22034   
     axis -180 30 90   XYZ
    dof rx ry rz
    limits (-90.0 60.0)
           (-90.0 90.0)
           (-90.0 90.0)
  end
  begin
     id 26 
     name rradius
     direction -1 -4.48965e-011 -3.93727e-027   
     length 3.41809   
     axis -180 30 90   XYZ
    dof rx
    limits (-10.0 170.0)
  end
  begin
     id 27 
     name rwrist
     direction -1 -4.48962e-011 -8.003e-028   
     length 1.70904   
     axis 3.27501e-015 -90 -90   XYZ
    dof ry
    limits (-180.0 0.0)
  end
  begin
     id 28
     name rhand
     direction -1 -4.49008e-011 -1.60365e-027   
     length 0.77534   
     axis 1.02148e-015 -90 -90   XYZ
    dof rx rz
    limits (-90.0 90.0)
           (-45.0 45.0)
  end
  begin
     id 29
     name rfingers
     direction -1 -4.49001e-011 -3.2064e-027   
     length 0.625099   
     axis 2.04295e-015 -90 -90   XYZ
    dof rx
    limits (0.0 90.0)
  end
  begin
     id 30
     name rthumb
     direction -0.707107 -6.34989e-011 0.707107   
     length 0.897521   
     axis -90 -45 1.62303e-014   XYZ
    dof rx rz
    limits (-45.0 45.0)
           (-45.0 45.0)
  end
:hierarchy
  begin
    root lhipjoint rhipjoint lowerback
    lhipjoint lfemur
    lfemur ltibia
    ltibia lfoot
    lfoot ltoes
    rhipjoint rfemur
    rfemur rtibia
    rtibia rfoot
    rfoot rtoes
    lowerback upperback
    upperback thorax
    thorax lowerneck lclavicle rclavicle
    lowerneck upperneck
    upperneck head
    lclavicle lhumerus
    lhumerus lradius
    lradius lwrist
    lwrist lhand lthumb
    lhand lfingers
    rclavicle rhumerus
    rhumerus rradius
    rradius rwrist
    rwrist rhand rthumb
    rhand rfingers
  end

#!OML:ASF \\sashay\E\Suitcase\Project 1\Capture day 1\Session 1\Male1.ASF
:FULLY-SPECIFIED
:DEGREES
552
root 1.29768 17.2533 -5.02973 -0.00453749 0.101365 6.1923
lowerback 8.22794 1.71123 -9.12695
upperback 1.8312 1.46473 -0.905853
thorax -2.90806 0.792256 4.0232
lowerneck -15.0057 0.288025 -0.742476
upperneck 28.2558 2.05732 -4.61871
head 11.7839 0.265725 -1.29203
rclavicle 1.66482e-015 1.82882e-014
rhumerus -43.0846 -42.8603 -53.4479
rradius 12.6695
rwrist 13.2326
rhand -12.1952 12.0588
rfingers 7.12502
rthumb 13.8689 -17.4588
lclavicle 1.66482e-015 1.82882e-014
lhumerus -29.9338 7.02298 79.2904
lradius 27.5427
lwrist -9.82618
lhand -3.36688 42.005
lfingers 7.12502
lthumb 22.3618 70.7309
rfemur -22.6196 -3.01289 14.6807
rtibia 72.7836
rfoot -6.00607 -5.67925
rtoes 16.0812
lfemur -7.97764 -4.25896 -32.2037
ltibia 23.1369
lfoot -15.7996 -6.99501
ltoes 20.6597
553
root 1.2975 17.2344 -4.91514 -0.224763 -0.150498 5.6138
lowerback 8.40721 1.56445 -8.67896
upperback 1.69321 1.29123 -0.620002
thorax -3.12678 0.716634 4.08748
lowerneck -14.3845 0.522563 -1.12698
upperneck 27.9758 2.39027 -4.36482
head 11.5499 0.419108 -1.07965
rclavicle 1.87603e-015 -7.95139e-016
rhumerus -42.252 -42.3873 -53.914
rradius 12.6029
rwrist 12.8174
rhand -12.1517 13.2738
rfingers 7.12502
rthumb 13.9108 -16.2409
lclavicle 1.87603e-015 -7.95139e-016
lhumerus -29.9419 6.88503 79.5276
lradius 27.8809
lwrist -9.47756
lhand -4.2384 41.8986
lfingers 7.12502
lthumb 21.525 70.7225
rfemur -23.3737 -2.48787 15.3212
rtibia 72.1181
rfoot -6.91032 -6.28262
rtoes 14.749
lfemur -7.58166 -4.50631 -31.6599
ltibia 23.7126
lfoot -16.035 -6.51396
ltoes 22.6589
554
root 1.30127 17.2145 -4.80613 -0.416466 0.0155557 5.71909
lowerback 8.26481 1.53129 -8.81732
upperback 1.93827 1.26335 -0.636501
thorax -2.78842 0.682868 4.15612
lowerneck -14.6073 0.366585 -1.1914
upperneck 27.9431 2.18088 -4.33995
head 11.5772 0.318525 -1.08858
rclavicle 2.07606e-014 -2.59414e-014
rhumerus -40.7052 -41.2087 -55.811
rradius 13.2318
rwrist 10.5367
rhand -11.64 13.1145
rfingers 7.12502
rthumb 14.4039 -16.3657
lclavicle 2.07606e-014 -2.59414e-014
lhumerus -28.9869 5.57237 80.0471
lradius 27.7688
lwrist -9.34225
lhand -4.15715 41.8475
lfingers 7.12502
lthumb 21.603 70.6625
rfemur -24.1403 -2.41483 15.0866
rtibia 71.4619
rfoot -8.04253 -6.32681
rtoes 15.3594
lfemur -7.11258 -4.94789 -31.8893
ltibia 24.1683
lfoot -16.283 -6.04124
ltoes 23.1156
555
root 1.29975 17.205 -4.69216 -0.628798 0.192951 5.40654
lowerback 8.5395 1.35358 -8.56218
upperback 1.85976 1.02249 -0.468735
thorax -2.98989 0.572531 4.21191
lowerneck -14.1752 0.446868 -0.893441
upperneck 27.6671 2.28813 -4.6885
head 11.3931 0.365376 -1.24946
rclavicle 1.73937e-016 2.88238e-015
rhumerus -40.1601 -40.7884 -56.2894
rradius 13.7127
rwrist 10.364
rhand -11.355 13.664
rfingers 7.12502
rthumb 14.6785 -15.7964
lclavicle 1.73937e-016 2.88238e-015
lhumerus -28.824 5.10842 80.2913
lradius 27.9499
lwrist -9.29139
lhand -4.74893 41.2908
lfingers 7.12502
lthumb 21.0346 70.1701
rfemur -24.7757 -2.09699 15.3815
rtibia 70.462
rfoot -8.94937 -6.73394
rtoes 14.8639
lfemur -6.64263 -5.10765 -31.6256
ltibia 24.6343
lfoot -16.7833 -5.9219
ltoes 23.766
556
root 1.31381 17.1805 -4.58782 -0.804288 0.511006 5.46579
lowerback 8.6729 1.18659 -8.44208
upperback 1.92485 0.800652 -0.502797
thorax -2.96368 0.458551 4.13345
lowerneck -14.0013 0.441779 -0.671135
upperneck 27.4516 2.249 -4.84532
head 11.278 0.357669 -1.34745
rclavicle 8.36138e-015 -5.06901e-015
rhumerus -38.4975 -38.805 -58.4336
rradius 14.0935
rwrist 7.70989
rhand -11.1887 13.8796
rfingers 7.12502
rthumb 14.8387 -15.5691
lclavicle 8.36138e-015 -5.06901e-015
lhumerus -27.9119 4.55813 80.5283
lradius 27.6591
lwrist -9.22781
lhand -4.25654 42.332
lfingers 7.12502
lthumb 21.5076 71.1579
rfemur -25.4123 -2.47354 15.0345
rtibia 69.5183
rfoot -9.22406 -6.80829
rtoes 15.8922
lfemur -6.26725 -5.15547 -31.8714
ltibia 24.8476
lfoot -16.7787 -6.09569
ltoes 25.3207
557
root 1.30808 17.1785 -4.47044 -0.773457 0.336423 5.04841
lowerback 8.42918 1.09644 -8.17063
upperback 1.94887 0.738328 -0.263185
thorax -2.79473 0.419082 4.2417
lowerneck -14.6911 0.88322 -0.913462
upperneck 28.3636 2.95119 -4.61349
head 11.7842 0.648873 -1.13406
rclavicle -1.6027e-014 8.54774e-015
rhumerus -37.4857 -37.9973 -59.2818
rradius 14.3622
rwrist 6.6389
rhand -10.7698 15.1314
rfingers 7.12502
rthumb 15.2422 -14.287
lclavicle -1.6027e-014 8.54774e-015
lhumerus -27.5535 3.64325 80.9804
lradius 28.3249
lwrist -9.40618
lhand -3.17596 44.2467
lfingers 7.12502
lthumb 22.5451 72.9504
rfemur -26.3405 -1.87928 15.5168
rtibia 68.3065
rfoot -10.468 -7.22755
rtoes 13.0462
lfemur -5.84707 -5.35692 -31.4129
ltibia 25.0129
lfoot -17.4655 -5.88768
ltoes 24.8262
558
root 1.30912 17.1529 -4.37079 -0.837016 0.801147 5.6041
lowerback 8.69722 0.972772 -8.70136
upperback 1.83523 0.487966 -0.461041
thorax -3.03104 0.311067 4.35839
lowerneck -14.2162 0.819217 -0.48671
upperneck 28.0134 2.793 -4.89846
head 11.5559 0.601574 -1.33185
rclavicle -8.21229e-015 2.9122e-014
rhumerus -37.0649 -37.2997 -60.083
rradius 14.861
rwrist 5.86034
rhand -10.372 14.1196
rfingers 7.12502
rthumb 15.6254 -15.2693
lclavicle -8.21229e-015 2.9122e-014
lhumerus -27.2951 2.51445 81.2261
lradius 28.5949
lwrist -9.06802
lhand -3.85484 42.6605
lfingers 7.12502
lthumb 21.8934 71.4418
rfemur -27.0143 -2.18524 14.6855
rtibia 67.0668
rfoot -10.994 -7.08653
rtoes 13.1611
lfemur -5.45639 -5.51857 -32.1449
ltibia 25.1264
lfoot -17.8569 -5.57901
ltoes 21.8426
559
root 1.31652 17.1501 -4.24712 -1.03496 0.960365 5.46671
lowerback 8.642 0.794605 -8.52822
upperback 1.99362 0.286058 -0.322873
thorax -2.80578 0.195905 4.42971
lowerneck -14.6291 0.808871 -0.567742
upperneck 28.1966 2.80651 -4.85837
head 11.7105 0.593275 -1.3036
rclavicle 2.06239e-015 1.43125e-014
rhumerus -35.9961 -36.4718 -60.9686
rradius 15.132
rwrist 4.92283
rhand -9.88127 15.2908
rfingers 7.12502
rthumb 16.098 -14.0606
lclavicle 2.06239e-015 1.43125e-014
lhumerus -26.6568 2.06121 81.5667
lradius 28.7506
lwrist -8.91375
lhand -3.50069 42.6587
lfingers 7.12502
lthumb 22.2334 71.3999
rfemur -27.2971 -2.14825 14.5525
rtibia 65.5438
rfoot -11.3255 -7.17735
rtoes 15.3529
lfemur -4.63564 -5.72408 -32.064
ltibia 25.1222
lfoot -18.2811 -5.74836
ltoes 24.5233
560
root 1.30576 17.1491 -4.14558 -0.875604 0.952256 4.98918
lowerback 8.68033 0.656676 -8.13416
upperback 1.86061 0.131844 -0.206592
thorax -2.94557 0.126487 4.34719
lowerneck -14.4583 0.895727 0.311567
upperneck 28.1394 2.92988 -5.69309
head 11.683 0.6408 -1.74819
rclavicle -2.98177e-016 2.04748e-014
rhumerus -35.4497 -36.3668 -61.4643
rradius 15.3226
rwrist 4.99478
rhand -9.68123 15.7772
rfingers 7.12502
rthumb 16.2906 -13.5585
lclavicle -2.98177e-016 2.04748e-014
lhumerus -26.3355 0.986019 81.7153
lradius 29.2266
lwrist -8.6461
lhand -3.48793 42.4759
lfingers 7.12502
lthumb 22.2456 71.2156
rfemur -28.146 -1.74548 15.0483
rtibia 63.8901
rfoot -11.7221 -7.86526
rtoes 12.9304
lfemur -4.43988 -5.40453 -31.5081
ltibia 24.9629
lfoot -18.6089 -5.55449
ltoes 22.3075
